# xmcd CD database file
#
# Track frame offsets:
#	150
#	10435
#	29540
#	43030
#	56895
#	69170
#	84372
#	96945
#	108115
#	120357
#	140355
#	156760
#	172065
#	187450
#	200832
#	210615
#	225547
#	242284
#	257155
#	269625
#
# Disc length: 3806 seconds
#
# Revision: 0
# Processed by: cddbd v1.5.1PL2 Copyright (c) Steve Scherf et al.
# Submitted via: CDex 1.51
#
DISCID=200edc14
DTITLE=Various Artist - The Masters Of Jazz
DYEAR=2002
DGENRE=Jazz
TTITLE0=What A Wonderful World - [Louis Armstrong]
TTITLE1=Body And Soul - [Jimmy Dorsey and His Orchestra]
TTITLE2=(Get Your Kicks On) Route 66 - [The King Cole Trio]
TTITLE3=One O'clock Jump - [Count Basie and His Orchestra]
TTITLE4=Gee, It's Good To Hold You - [Jo Stafford]
TTITLE5=Moonlight Serenade - [Glen Miller and His Orchestra]
TTITLE6=Yardbird Suite - [Charlie Parker and Miles Davis]
TTITLE7=At Your Beck And Call - [Duke Ellington and His Orchestra Feat. Ivie Anderson]
TTITLE8=Groovin' High - [Dizzy Gillespie and Charlie Parker]
TTITLE9=Honeysuckle Rose - [Ben Webster]
TTITLE10=It's A Blue World - [Ella Fitzgerald and Her Famous Orchestra]
TTITLE11=I Can't Give You Anything But Love - [Lena Horne]
TTITLE12=Don't Explain - [Billie Holiday]
TTITLE13=Rose Room (In Sunny Roseland) - [Charlie Christian With The Benny Goodman Sextet]
TTITLE14=If I Could Be With You (One Hour Tonight) - [Lester Young and Company Feat. Marie Bryant]
TTITLE15=Tuxedo Junction - [The Harry James Orchestra]
TTITLE16=What Is This Thing Called Love? - [Buddy Rich and His Orchestra]
TTITLE17=Blue Skies - [Tommy Dorsey and His Orchestra Feat. Stuart Foster]
TTITLE18=Unforgettable - [Dinah Washington]
TTITLE19=Stardust - [Artie Shaw and His Orchestra
EXTD=YEAR: 2002
EXTT0=
EXTT1=
EXTT2=
EXTT3=
EXTT4=
EXTT5=
EXTT6=
EXTT7=
EXTT8=
EXTT9=
EXTT10=
EXTT11=
EXTT12=
EXTT13=
EXTT14=
EXTT15=
EXTT16=
EXTT17=
EXTT18=
EXTT19=
PLAYORDER=
